<?xml version="1.0" encoding="UTF-8"?>
<!-- Generator: Adobe Illustrator 21.0.0, SVG Export Plug-In . SVG Version: 6.00 Build 0)  -->
<svg version="1.1" id="Layer_1" xmlns="http://www.w3.org/2000/svg" xmlns:xlink="http://www.w3.org/1999/xlink" x="0px" y="0px" viewBox="0 0 512 512" style="enable-background:new 0 0 512 512;" xml:space="preserve">
<g>
	<path d="M213.3,0c-23.6,0-42.7,19.1-42.7,42.7V44l-108,68c-6-3.2-12.8-5.3-20-5.3C19.1,106.7,0,125.8,0,149.3   c0,15.8,8.6,29.3,21.3,36.7v246.7C8.6,440.1,0,453.6,0,469.3C0,492.9,19.1,512,42.7,512c15.8,0,29.2-8.6,36.7-21.3h268   c7.4,12.8,20.9,21.3,36.7,21.3c23.6,0,42.7-19.1,42.7-42.7c0-8.5-2.3-16.7-6.7-23.3l52-104.7c22.3-1.4,40-20,40-42.7   c0-20.8-14.9-38.3-34.7-42l-40.7-122c6.8-7.6,11.3-17.1,11.3-28c0-23.6-19.1-42.7-42.7-42.7c-10.9,0-20.4,4.6-28,11.3L255.3,34   C251.3,14.6,233.9,0,213.3,0z M241.3,74.7l122,40c3.3,17.2,16.8,30.8,34,34L438,270c-6.9,7.6-11.3,17.6-11.3,28.7   c0,8.8,2.8,17.2,7.3,24l-52.7,104c-14.7,0.9-27,9.3-34,21.3h-268c-3.8-6.4-8.9-11.6-15.3-15.3V186c12.8-7.4,21.3-20.9,21.3-36.7   V148l108-68c6,3.2,12.8,5.3,20,5.3C224.1,85.3,233.8,81.3,241.3,74.7z"/>
</g>
<script xmlns=""/></svg>